<?xml version="1.0" encoding="UTF-8"?>
<svg id="Layer_1" xmlns="http://www.w3.org/2000/svg" version="1.1" viewBox="0 0 221.4 427.55">
  <!-- Generator: Adobe Illustrator 29.7.1, SVG Export Plug-In . SVG Version: 2.1.1 Build 8)  -->
  <defs>
    <style>
      .st0 {
        fill: #fff;
      }
    </style>
  </defs>
  <path class="st0" d="M108.42,419.78c-.51-1.36-1.02-2.71-1.53-4.06-7.75-20.53-15.75-41.76-21.02-63.7l-2.14-8.9,7.98,4.48c.49.26,2.93,1.25,6.45,2.48-7.26-30.23-14.55-64.74-15.45-99.88l-.26-10.24,7.13,7.36c5.08,5.24,11.01,11.03,15.16,14.75.55-41.78,6.95-82.72,16.37-130.44-6.22-5.68-13.05-11-19.68-16.16-4.89-3.81-9.95-7.75-14.78-11.84-6.33-5.36-12.51-11.05-18.5-16.56-1.85-1.7-3.7-3.41-5.56-5.1-16.29-14.87-30.9-28.38-44.82-43.1-3.45-3.65-6.76-7.51-9.96-11.23-1.86-2.17-3.75-4.37-5.68-6.54,9.66,67.58,48.45,179.99,48.86,181.18l5.6,16.17-12.19-12.01c-10.46-10.31-19.41-21.94-27.23-33.15,5.91,30.86,15.66,62.22,29.04,93.4,2.57,5.98,6.87,15.37,11.04,24.45,2.6,5.67,5.05,11.02,6.85,15.03,3.45,7.72,3.82,8.53,2.51,10.57l-1.18,1.84h-2.2s-.41,0-.41,0l-.41-.08-1.13-.23-.83-.8-4.33-4.18c6.31,21.66,16.64,45.25,31.93,73.05,6.55,11.9,13.35,23.08,20.36,33.43Z"/>
  <path class="st0" d="M105.97,23.22c-16.41-1.73-33.41-4.97-49.87-8.1C39.33,11.92,22,8.62,5.5,6.97c13.47,16.03,29.24,32.56,46.95,49.23,24.18,22.75,50.33,44.31,77.73,64.11l1.71.19,82.87-16.4L105.97,23.22Z"/>
  <path class="st0" d="M110.23,354.37c-.91-1.51-1.44-3.68-1.92-5.65-.19-.78-.38-1.55-.58-2.25-3.18-11.13-6.12-23.93-8.74-38.03-1.68-9.06-5.65-34.54-5.79-43.19,1.72,1.61,3.88,3.92,5.75,5.92,6.14,6.57,8.87,9.26,11.14,9.37l.41.02,40.74-14.92c-1.25,7.13-3.38,14.24-5.45,21.15-1.68,5.6-3.41,11.39-4.69,17.19-2.12,9.64-3.29,19.43-4.43,28.9-.42,3.49-.85,7.08-1.32,10.63-3.42,2.13-20.63,9.55-25.11,10.85Z"/>
  <path class="st0" d="M205.5,135.22c2.5-4.12,5.45-8.2,8.31-12.15,1.91-2.64,3.75-5.18,5.43-7.69l-86.72,19.55c-9.23,39.11-14.67,82.02-16.61,130.97,8.5-2.53,29.53-10.89,35.91-14.33.2-.11.39-.21.59-.31.95-.5,1.48-.79,1.85-1.18,2.83-7.08,5.66-14.32,8.39-21.33,12.29-31.52,25-64.11,42.85-93.53Z"/>
  <path class="st0" d="M119.76,361.65c-1.28.6-2.63,1.29-3.59,1.78-3.8,1.94-5.87,2.96-7.63,3.13-.39.04-.79.06-1.19.06-2.43,0-4.4-.74-6.05-1.51.81,3.67,2.26,8.39,3.16,11.35.22.73.43,1.4.6,1.98,1.98,6.59,7.77,25.35,14.49,42.13-.39-3.46-.72-6.92-.86-10.27-.41-9.76.03-19.58.46-29.07.29-6.43.59-13.04.61-19.59Z"/>
</svg>